<svg preserveAspectRatio="xMidYMid meet" data-bbox="0 0 181.179 142.235" viewBox="0 0 181.179 142.235" height="142.234" width="181.178" xmlns="http://www.w3.org/2000/svg" data-type="color" role="img">
    <g>
        <path d="M.183 0h20.926v20.926H.183V0zm4.185 20.926h20.926v20.926H4.368V20.926zm0 20.926h20.926v20.926H4.368V41.852zm0 20.926h20.926v20.926H4.368V62.778zM45.551 0h20.926v20.926H45.551V0zm20.178 0h20.926v20.926H65.729V0zM45.551 20.926h20.926v20.926H45.551V20.926zm0 20.926h20.926v20.926H45.551V41.852zm20.926 0h20.926v20.926H66.477V41.852zm20.926 0h20.926v20.926H87.403V41.852zm0 20.926h20.926v20.926H87.403V62.778zm0 20.926h20.926v20.926H87.403V83.704zm-20.926 0h20.926v20.926H66.477V83.704zm-20.926 0h20.926v20.926H45.551V83.704z" fill="#040000" data-color="1"></path>
        <path d="M29.242 130.951c-.242-2.482-2.043-4.271-4.7-4.668a6.927 6.927 0 0 0-2.054 0c-2.657.397-4.458 2.186-4.7 4.668-.24 2.458-.237 4.829.008 7.049.204 1.852 1.075 3.181 2.521 3.915a2.95 2.95 0 0 0 1.331.319h3.734a2.93 2.93 0 0 0 1.331-.319c1.447-.734 2.317-2.063 2.521-3.915.246-2.22.248-4.591.008-7.049z" fill="#040000" data-color="1"></path>
        <path d="M40.88 137.788a1.177 1.177 0 0 1 1.169-1.044h1.636c.346 0 .617.296.586.64-.018.206-.039.412-.061.616-.204 1.852-1.075 3.181-2.521 3.915a2.95 2.95 0 0 1-1.331.319h-3.734a2.93 2.93 0 0 1-1.331-.319c-1.447-.734-2.317-2.063-2.521-3.915-.245-2.22-.247-4.591-.008-7.049.242-2.482 2.043-4.271 4.7-4.668a6.927 6.927 0 0 1 2.054 0c2.657.397 4.458 2.186 4.7 4.668l.048.527a.588.588 0 0 1-.586.637h-1.66a1.176 1.176 0 0 1-1.165-1.013c-.177-1.263-.889-2-2.074-2.138a3.277 3.277 0 0 0-.289-.021c-.094.003-.19.01-.289.021-1.287.15-2.016 1.005-2.108 2.475-.13 2.072-.078 4.173-.019 5.981.046 1.403.644 2.185 1.83 2.39.191.033.389.054.586.06a4.2 4.2 0 0 0 .586-.06c1.076-.186 1.668-.849 1.802-2.022z" fill="#040000" data-color="1"></path>
        <path d="M177.277 142.234c.52 0 1.03-.138 1.479-.399a5.033 5.033 0 0 0 1.688-1.578c.487-.738.735-1.57.735-2.474 0-.937-.15-1.71-.448-2.3-.302-.597-.809-1.107-1.508-1.514-.672-.392-1.656-.789-2.924-1.178-.766-.238-1.316-.541-1.636-.901-.313-.352-.464-.815-.464-1.418 0-.477.205-.85.625-1.139.444-.304 1.021-.459 1.715-.459.446 0 .859.055 1.225.163.371.109.68.23.917.359.416.226.459.237.533.237.203 0 .402-.125.609-.383.168-.211.311-.46.424-.74.118-.291.175-.525.175-.713 0-.312-.225-.582-.688-.825-.387-.202-.897-.368-1.519-.493a9.694 9.694 0 0 0-1.923-.187c-.969 0-1.852.192-2.627.57-.781.382-1.399.924-1.835 1.61a4.272 4.272 0 0 0-.657 2.329c0 .792.129 1.479.385 2.042.26.575.709 1.079 1.334 1.5.609.409 1.462.775 2.536 1.088.715.214 1.283.437 1.691.664.383.213.656.458.814.726.157.267.238.607.238 1.011 0 1.45-.833 2.126-2.621 2.126-.647 0-1.207-.094-1.663-.279a7.89 7.89 0 0 1-1.35-.702c-.266-.178-.349-.207-.436-.207-.213 0-.419.124-.63.38a3.386 3.386 0 0 0-.446.704c-.135.282-.198.485-.198.636 0 .321.242.649.74 1.005.264.189.584.361.954.515.358.149.741.225 1.128.225l3.628-.001z" fill="#040000" data-color="1"></path>
        <path d="M84.445 126.874l1.388-5.225c-2.919-.34-3.032-.24-3.976 3.281a311.312 311.312 0 0 1-2.977 10.371l-.183.602c-.186.613-.74 1.025-1.381 1.025s-1.195-.412-1.38-1.025l-.183-.603a308.929 308.929 0 0 1-2.977-10.371c-.944-3.522-1.058-3.62-3.976-3.281l1.388 5.225c1.257 4.729 2.487 9.359 3.71 13.984a1.5 1.5 0 0 0 1.449 1.116h3.937a1.5 1.5 0 0 0 1.449-1.116l3.712-13.983z" fill="#040000" data-color="1"></path>
        <path d="M138.251 141.88l.002.076a.293.293 0 0 0 .294.278h2.298a.294.294 0 0 0 .294-.279c.004-.083.004-.181.003-.298.004-.104.012-.363-.001-1.02a44637.064 44637.064 0 0 0 0-13.056.764.764 0 0 0-.409-.706c-.226-.126-.563-.188-1.03-.188h-.115c-.444 0-.77.062-.997.188a.765.765 0 0 0-.409.706v9.211c0 1.181-.604 2.253-1.596 2.807-.624.346-1.253.522-1.867.522-.875 0-1.559-.229-2.03-.682-.475-.455-.706-1.084-.706-1.923v-9.935a.766.766 0 0 0-.409-.706c-.226-.127-.552-.189-.997-.189h-.132c-.455 0-.786.062-1.012.188a.765.765 0 0 0-.41.706l.001 10.204c.065.754.3 1.744.766 2.603a3.529 3.529 0 0 0 3.103 1.846h2.459a3.53 3.53 0 0 0 1.621-.394c.507-.262.888-.53 1.278-.903.007.247.006.43.005.647a9.804 9.804 0 0 0-.004.297z" fill="#040000" data-color="1"></path>
        <path d="M59.134 126.674c-.207-.078-.49-.116-.864-.116h-.099c-.927 0-1.482.156-1.744.485l-4.786 5.716c-.326.317-.453.039-.497-.13v-10.673c0-.408-.247-.895-1.423-.895h-.115c-1.189 0-1.439.487-1.439.895v19.658c0 .027.001.055.004.083a.588.588 0 0 0 .586.537h1.798a.588.588 0 0 0 .589-.62v-5.463c.043-.12.183-.396.475-.122l4.903 5.827c.201.239.498.377.81.377h2.477a.295.295 0 0 0 .294-.276c.003-.044.003-.083.003-.113 0-.188-.098-.387-.307-.624l-5.92-7.001 5.325-6.29c.241-.281.358-.53.358-.757-.001-.154-.075-.366-.428-.498z" fill="#040000" data-color="1"></path>
        <path d="M145.679 126.814c-.112.113-.11.247-.105.538v14.263l.003.078c.024.306.28.542.586.542h1.782a.588.588 0 0 0 .589-.619v-9.586a2.89 2.89 0 0 1 1.273-2.29c.38-.258.767-.389 1.183-.401.257 0 .466.018.622.052.161.035.323.089.503.166.127.042.269.133.354.187l.069.042c.062.036.177.102.316.05.17-.064.212-.187.415-.779.068-.197.128-.383.185-.556.066-.202.127-.387.186-.554.204-.571.148-.714-.373-.958l-.139-.066c-.37-.178-1.13-.322-1.696-.322-1.078 0-2.172.518-2.916 1.34v-.23c.001-.178.001-.31-.001-.508l.002-.078c.004-.081.01-.203-.087-.303-.111-.115-.244-.113-.591-.11-.125.001-.284.005-.495.002-.153-.001-.342.001-.546.002-.24.002-.501.005-.79.001-.104-.003-.229-.004-.329.097z" fill="#040000" data-color="1"></path>
        <path d="M107.285 129.595c.624-.346 1.252-.522 1.866-.522.875 0 1.559.229 2.03.682.475.455.706 1.085.706 1.923v9.936a.588.588 0 0 0 .589.62h1.782a.588.588 0 0 0 .589-.62v-10.183c0-1.602-.455-2.36-1.295-3.201a5.384 5.384 0 0 0-3.783-1.567c-.949 0-1.826.189-2.608.56-.644.307-1.088.598-1.542 1.035-.007-.247-.006-.43-.005-.647l.001-.297c0-.538-.261-.54-1.038-.543l-.341-.003a73.365 73.365 0 0 0-.836-.004l-.26-.001c-.066-.001-.187-.005-.287.095-.121.118-.131.294-.128.679-.004.104-.012.363.001 1.021.007.363.005.854.003 1.484l-.003 11.572a.588.588 0 0 0 .589.62h1.781a.588.588 0 0 0 .589-.62v-9.212c.004-1.18.608-2.252 1.6-2.807z" fill="#040000" data-color="1"></path>
        <path d="M125.919 140.579c-.168-.511-.253-.995-.675-.995-.086 0-.222.022-.457.072-.186.04-.459.06-.814.06-.412 0-.725-.129-.958-.393-.238-.271-.359-.782-.359-1.518v-8.582h2.208c.368 0 .563-.172.661-.315.124-.182.184-.447.184-.81v-.363c0-.363-.06-.627-.184-.81-.098-.144-.293-.315-.661-.315h-2.208v-2.889l-.001-.07c-.024-.647-.354-.752-1.47-.755-1.116.003-1.446.109-1.47.755l-.019 2.959h-1.22c-.369 0-.563.172-.661.315-.123.182-.184.447-.184.81v.363c0 .364.06.628.184.809.098.144.292.316.661.316h1.218v9.108c0 1.582.422 2.709 1.253 3.35.055.042.11.083.166.123.397.28.871.431 1.357.431h3.009a.59.59 0 0 0 .498-.275.845.845 0 0 0 .126-.46c.002-.239-.058-.539-.184-.921z" fill="#040000" data-color="1"></path>
        <path d="M167.669 136.789h-1.712c-.295 0-.584.101-.811.291s-.377.457-.412.752c-.14 1.173-.759 1.836-1.887 2.023-.2.033-.406.054-.613.06a4.595 4.595 0 0 1-.613-.06c-1.24-.205-1.866-.987-1.914-2.39-.016-.458-.031-.935-.043-1.426-.008-.326.126-.635.36-.859s.548-.345.87-.345h6.273c.323 0 .638-.122.872-.346.234-.225.368-.535.358-.862a35.606 35.606 0 0 0-.173-2.632c-.253-2.482-2.137-4.271-4.916-4.668a7.578 7.578 0 0 0-2.15 0c-2.779.397-4.663 2.186-4.916 4.668-.251 2.458-.248 4.829.008 7.049.209 1.813 1.086 3.124 2.542 3.868.414.211.872.322 1.337.322h4.207c.465 0 .923-.11 1.337-.322 1.456-.743 2.333-2.055 2.542-3.868a24.2 24.2 0 0 0 .064-.616.574.574 0 0 0-.164-.455.62.62 0 0 0-.446-.184z" fill="#040000" data-color="1"></path>
        <path fill="#040000" d="M140.774 142.179v.001-.001z" data-color="1"></path>
        <path d="M99.133 136.789h-1.712c-.295 0-.584.101-.811.291s-.377.457-.412.752c-.14 1.173-.759 1.836-1.887 2.023a4.61 4.61 0 0 1-.613.06 4.595 4.595 0 0 1-.613-.06c-1.24-.205-1.866-.987-1.914-2.39-.016-.458-.031-.935-.043-1.426-.008-.326.126-.635.36-.859s.548-.345.87-.345h6.273c.323 0 .638-.122.872-.346.234-.225.368-.535.358-.862a35.606 35.606 0 0 0-.173-2.632c-.253-2.482-2.137-4.271-4.916-4.668a7.578 7.578 0 0 0-2.15 0c-2.779.397-4.663 2.186-4.916 4.668-.251 2.458-.248 4.829.008 7.049.209 1.813 1.086 3.124 2.542 3.868.414.211.872.322 1.337.322H95.8c.465 0 .923-.11 1.337-.322 1.456-.743 2.333-2.055 2.542-3.868a24.2 24.2 0 0 0 .064-.616.574.574 0 0 0-.164-.455.62.62 0 0 0-.446-.184z" fill="#040000" data-color="1"></path>
        <path fill="#040000" d="M103.096 127.014v-.001.001z" data-color="1"></path>
        <path d="M14.942 141.291l-2.295-5.796c-.455-1.121-.877-1.982-1.252-2.559a3.103 3.103 0 0 0-1.125-1.066c.918-.429 1.654-1.03 2.192-1.788.617-.871.93-1.956.93-3.223 0-1.883-.633-3.279-1.882-4.15-1.221-.851-3.048-1.283-5.433-1.283H1.142c-.374 0-.66.093-.85.276-.194.186-.292.472-.292.849v19.063c0 .027.001.055.004.083a.588.588 0 0 0 .586.537h1.913a.588.588 0 0 0 .589-.62v-8.2h2.39c.773 0 1.42.079 1.922.236.484.151.908.423 1.26.805.362.393.684.955.957 1.67l2.218 5.732a.588.588 0 0 0 .549.376h2.18a.47.47 0 0 0 .467-.527 2.732 2.732 0 0 0-.093-.415z" fill="#040000" data-color="1"></path>
        <path d="M135.889 96.538c0 .943.764 1.707 1.707 1.707h5.99c.943 0 1.707.764 1.707 1.707v3.413c0 .709-.594 1.267-1.301 1.244h-9.252a5.12 5.12 0 0 1-5.12-5.12V77.048h-4.552a.683.683 0 0 1-.483-1.165l11.303-11.303v6.618h9.404v5.851h-9.404l.001 19.489z" fill="#040000" data-color="1"></path>
        <path d="M158.037 55.94v15.256h5.921c5.154 0 8.846.767 11.077 2.298 1.996 1.347 3.26 2.96 3.795 4.841.532 1.88.802 4.353.802 7.418v16.564a2.311 2.311 0 0 1-2.312 2.312h-1.509a2.31 2.31 0 0 1-2.31-2.312V85.823c0-.836-.025-1.545-.07-2.125-.047-.58-.209-1.324-.487-2.229s-.674-1.647-1.184-2.229c-.512-.58-1.254-1.091-2.23-1.533-.975-.439-2.159-.66-3.551-.66h-7.942v25.271a2.31 2.31 0 0 1-2.31 2.312h-1.509a2.31 2.31 0 0 1-2.31-2.312V55.94c0-.038.031-.067.068-.067h5.994c.036 0 .067.029.067.067z" fill="#040000" data-color="1"></path>
    </g>
</svg>
